<svg xmlns="http://www.w3.org/2000/svg" viewBox="0 0 1200 300">
  <!-- Sky gradient -->
  <defs>
    <linearGradient id="skyGradient" x1="0%" y1="0%" x2="0%" y2="100%">
      <stop offset="0%" style="stop-color:#4a90e2;stop-opacity:1" />
      <stop offset="100%" style="stop-color:#81c3fd;stop-opacity:1" />
    </linearGradient>
  </defs>
  <rect width="1200" height="300" fill="url(#skyGradient)" />
  
  <!-- Sun -->
  <circle cx="1100" cy="50" r="40" fill="#f9d71c" />
  
  <!-- Mountains -->
  <polygon points="0,300 300,100 600,250 900,50 1200,200 1200,300" fill="#2c3e50" />
  
  <!-- Trees -->
  <g fill="#27ae60">
    <circle cx="100" cy="250" r="30" />
    <circle cx="400" cy="270" r="20" />
    <circle cx="700" cy="260" r="25" />
    <circle cx="1000" cy="280" r="15" />
  </g>
  
  <!-- Stylized books -->
  <g transform="translate(550, 150) rotate(-10)">
    <rect width="100" height="80" fill="#e74c3c" />
    <rect x="10" y="-20" width="100" height="80" fill="#f1c40f" />
    <rect x="20" y="-40" width="100" height="80" fill="#3498db" />
  </g>
  
  <!-- Atom symbol for science -->
  <g transform="translate(200, 100)">
    <circle cx="0" cy="0" r="30" fill="none" stroke="#95a5a6" stroke-width="4" />
    <ellipse cx="0" cy="0" rx="50" ry="15" fill="none" stroke="#95a5a6" stroke-width="4" transform="rotate(60)" />
    <ellipse cx="0" cy="0" rx="50" ry="15" fill="none" stroke="#95a5a6" stroke-width="4" transform="rotate(-60)" />
  </g>
  
  <!-- Sports equipment -->
  <circle cx="950" cy="200" r="20" fill="#e67e22" /> <!-- Basketball -->
  <rect x="900" y="230" width="60" height="10" fill="#2980b9" /> <!-- Swimming pool -->
</svg>
